<?xml version="1.0" standalone="no"?>
<!DOCTYPE svg PUBLIC "-//W3C//DTD SVG 20010904//EN"
 "http://www.w3.org/TR/2001/REC-SVG-20010904/DTD/svg10.dtd">
<svg version="1.0" xmlns="http://www.w3.org/2000/svg"
 width="500.000000pt" height="500.000000pt" viewBox="0 0 500.000000 500.000000"
 preserveAspectRatio="xMidYMid meet">

<g transform="translate(0.000000,500.000000) scale(0.100000,-0.100000)"
fill="#000000" stroke="none">
<path d="M3166 3066 c-52 -31 -86 -89 -86 -145 0 -33 10 -63 40 -117 l40 -73
-93 -54 c-50 -30 -119 -70 -152 -89 -84 -48 -83 -69 10 -125 101 -61 110 -69
30 -27 -38 20 -85 48 -102 61 -35 26 -42 20 -18 -14 19 -26 111 -84 120 -75 4
4 13 -2 21 -12 8 -11 14 -16 14 -11 0 5 6 1 13 -9 7 -9 21 -18 31 -20 9 -1 21
-7 24 -13 4 -5 30 -23 57 -38 65 -37 269 -157 273 -160 2 -1 -11 -11 -28 -22
l-32 -20 46 -27 c43 -25 47 -26 75 -11 39 20 58 19 70 -2 5 -10 13 -15 17 -11
10 10 46 -11 39 -23 -4 -5 9 -9 29 -9 37 0 42 -5 27 -28 -6 -11 -11 -10 -24 3
-15 15 -18 15 -42 -1 -23 -15 -25 -15 -25 0 0 10 5 14 10 11 12 -8 13 5 1 24
-7 11 -13 11 -32 1 -42 -23 -52 -50 -17 -50 14 0 19 -3 12 -10 -5 -5 -19 -7
-30 -4 -19 5 -20 9 -10 40 7 21 16 32 23 29 16 -5 16 5 2 25 -8 11 -12 12 -16
2 -2 -6 -10 -9 -16 -5 -6 4 -8 0 -4 -10 5 -14 1 -15 -26 -10 -18 3 -42 12 -55
20 -13 8 -31 12 -40 8 -13 -5 -14 -8 -3 -14 9 -6 10 -11 2 -15 -18 -12 -13
-34 10 -41 12 -4 26 -2 32 4 8 8 4 11 -14 12 -15 0 -18 3 -9 6 8 3 18 10 21
16 4 5 12 0 18 -11 9 -17 8 -23 -9 -35 -11 -7 -17 -17 -13 -20 3 -4 1 -7 -5
-7 -6 0 -15 7 -20 16 -7 13 -12 13 -40 -3 -50 -29 -44 -35 32 -37 22 -1 41 -6
43 -12 5 -15 -35 -25 -42 -10 -3 8 -7 8 -11 -1 -9 -19 -31 -16 -53 8 -18 20
-21 20 -50 5 -17 -9 -31 -20 -31 -25 0 -13 25 -20 52 -14 17 3 19 2 9 -5 -12
-8 -8 -14 19 -31 41 -24 52 -19 19 8 l-24 20 23 1 c12 0 22 -4 22 -9 0 -12 35
-8 74 8 16 6 37 9 47 6 13 -4 19 -1 19 9 0 9 -7 16 -16 16 -8 0 -12 5 -9 10 3
6 -2 10 -12 10 -17 1 -17 1 0 14 16 13 16 14 -5 20 l-23 7 22 11 c12 6 24 16
26 22 2 6 3 1 1 -10 -3 -17 4 -25 29 -35 17 -7 38 -19 45 -26 7 -7 19 -13 25
-13 7 0 3 8 -8 16 -19 15 -19 16 -1 12 21 -3 44 -33 34 -44 -4 -3 -23 -1 -43
6 -40 13 -48 11 -40 -12 3 -8 18 -15 33 -15 15 0 34 -3 42 -6 12 -6 19 2 29
28 8 24 18 35 27 31 8 -3 14 -1 14 4 0 6 5 10 10 10 18 0 11 -18 -10 -25 -20
-6 -28 -35 -10 -35 6 0 10 5 10 10 0 6 16 18 35 27 19 9 35 21 35 27 0 6 4 6
8 -1 6 -10 12 -10 28 2 16 12 17 14 3 15 -9 0 -19 7 -23 15 -7 20 -36 8 -36
-16 0 -12 -5 -16 -15 -13 -8 4 -12 10 -9 15 3 5 -1 9 -8 9 -8 1 -6 6 6 15 18
14 18 16 3 28 -14 10 7 25 150 107 91 52 172 105 179 116 35 52 32 55 -528
368 -70 39 -127 74 -128 78 0 4 23 47 51 95 46 81 50 92 46 140 -10 131 -150
206 -261 139z m160 -7 c49 -23 80 -67 89 -124 6 -34 1 -51 -31 -110 -100 -190
-124 -238 -124 -253 0 -10 -11 8 -23 39 -13 30 -36 78 -52 105 -82 142 -89
159 -89 204 0 63 29 110 84 138 55 27 92 28 146 1z m-122 -405 c14 -31 31 -75
37 -97 13 -46 11 -48 43 43 29 80 15 82 227 -40 107 -62 244 -141 305 -176
128 -74 141 -85 119 -104 -28 -23 -289 -171 -312 -177 -17 -4 -110 45 -370
193 -191 110 -356 207 -367 217 l-21 17 24 20 c13 11 35 20 50 20 34 0 197 94
193 111 -3 13 15 29 35 29 6 0 23 -25 37 -56z m-134 -280 c0 -2 -9 0 -20 6
-11 6 -20 13 -20 16 0 2 9 0 20 -6 11 -6 20 -13 20 -16z m331 -258 c-18 -21
11 -41 39 -26 12 6 24 9 27 6 3 -3 -6 -10 -19 -17 -20 -9 -32 -8 -58 6 -30 15
-31 17 -13 30 23 18 39 19 24 1z m208 -145 c12 -8 9 -11 -11 -16 -29 -8 -52 1
-43 16 8 12 36 11 54 0z m-284 -21 c-3 -5 -11 -10 -16 -10 -6 0 -7 5 -4 10 3
6 11 10 16 10 6 0 7 -4 4 -10z"/>
<path d="M3218 2968 c-27 -22 -30 -53 -7 -81 40 -52 107 -19 100 50 -3 36 -61
55 -93 31z"/>
<path d="M3384 2535 l-38 -23 39 -19 c38 -20 39 -20 72 -1 18 11 33 21 33 23
0 2 -15 12 -34 23 l-34 20 -38 -23z m71 -9 c19 -14 19 -15 -8 -27 -22 -10 -32
-10 -53 1 l-25 14 23 13 c30 16 40 16 63 -1z"/>
<path d="M3401 2521 c-11 -7 -9 -10 8 -16 24 -7 44 2 36 16 -8 11 -26 11 -44
0z"/>
<path d="M3297 2470 c-20 -34 -22 -46 -4 -31 11 8 18 6 32 -9 17 -18 17 -20 1
-26 -14 -5 -15 -9 -4 -15 19 -13 36 -11 18 2 -13 9 -13 10 0 5 8 -3 23 -9 33
-12 9 -4 17 -11 17 -16 0 -5 -8 -8 -17 -6 -10 1 -23 -1 -30 -5 -7 -4 -20 1
-31 13 -19 20 -19 20 -43 1 -22 -18 -23 -20 -5 -27 11 -4 22 -2 28 7 8 11 9
10 4 -3 -3 -11 3 -23 16 -32 18 -13 23 -13 35 0 8 8 21 14 29 14 8 0 13 4 10
9 -3 4 10 7 29 5 19 -1 35 2 35 7 0 5 -5 9 -11 9 -5 0 -7 5 -4 10 3 6 2 10 -3
10 -21 0 -22 34 -1 53 l21 20 -6 -24 c-7 -23 -6 -23 8 -5 9 11 16 26 16 34 0
7 4 10 10 7 6 -4 7 1 3 11 -4 11 -8 13 -11 6 -2 -7 -9 -9 -14 -6 -6 4 -8 2 -4
-4 11 -19 -28 -19 -56 0 -32 22 -46 18 -44 -14 1 -14 9 -24 22 -28 18 -4 19
-7 9 -17 -19 -17 -82 42 -65 62 6 7 7 16 2 19 -4 3 -16 -8 -25 -24z m117 -26
c6 -16 0 -17 -29 -4 -11 5 -14 9 -7 9 7 1 10 5 7 11 -3 5 0 7 9 4 8 -3 17 -12
20 -20z m-74 -114 c0 -5 -4 -10 -9 -10 -6 0 -13 5 -16 10 -3 6 1 10 9 10 9 0
16 -4 16 -10z"/>
<path d="M3504 2474 c3 -6 -5 -19 -17 -29 -19 -17 -20 -20 -6 -23 11 -2 15
-10 12 -21 -3 -11 2 -21 13 -25 15 -6 15 -4 3 11 -13 17 -12 17 14 0 25 -16
29 -16 43 -2 8 8 18 15 22 15 4 0 12 11 18 24 11 23 9 26 -28 41 -22 9 -43 13
-46 10 -3 -3 0 -5 7 -5 7 0 9 -4 6 -10 -4 -6 5 -10 19 -10 25 0 33 -10 19 -23
-3 -4 -12 -2 -20 4 -10 9 -17 8 -28 -1 -9 -7 -19 -10 -22 -6 -4 4 -2 10 5 15
9 5 8 12 -4 27 -8 10 -13 14 -10 8z m61 -63 c3 -5 1 -12 -4 -15 -13 -8 -42 4
-35 15 7 12 31 12 39 0z"/>
<path d="M3260 2454 c0 -8 5 -12 10 -9 6 4 8 11 5 16 -9 14 -15 11 -15 -7z"/>
<path d="M3213 2435 c-16 -12 -16 -13 7 -8 14 2 34 -2 44 -10 19 -14 19 -15
-3 -27 -13 -6 -32 -9 -43 -6 -15 3 -18 2 -10 -6 12 -12 48 -5 76 15 17 13 16
15 -17 34 -30 18 -38 19 -54 8z"/>
<path d="M3172 2411 c-11 -7 -11 -9 0 -14 9 -3 15 1 15 9 0 8 -1 14 -1 14 -1
0 -7 -4 -14 -9z"/>
<path d="M3215 2410 c-8 -12 20 -24 35 -15 6 3 8 11 5 16 -8 12 -32 12 -40 -1z"/>
<path d="M3650 2400 c0 -5 7 -7 15 -4 8 4 15 8 15 10 0 2 -7 4 -15 4 -8 0 -15
-4 -15 -10z"/>
<path d="M3598 2384 c-16 -8 -28 -19 -28 -24 0 -5 16 0 35 11 51 31 45 42 -7
13z"/>
<path d="M3476 2356 c3 -8 13 -12 27 -8 20 5 20 6 1 13 -29 11 -34 10 -28 -5z"/>
<path d="M3381 2318 c-27 -17 -30 -23 -18 -30 9 -5 27 -3 44 3 16 7 23 13 15
16 -7 3 -19 -1 -28 -7 -8 -7 -17 -10 -20 -7 -10 10 37 29 58 24 16 -4 17 -3 7
9 -14 17 -16 17 -58 -8z"/>
<path d="M3501 2321 c-8 -5 -9 -11 -3 -15 5 -3 12 1 16 9 6 17 6 18 -13 6z"/>
<path d="M3464 2301 c3 -5 -11 -16 -32 -24 -24 -11 -30 -16 -17 -16 24 -1 78
33 68 42 -10 10 -25 8 -19 -2z"/>
<path d="M545 2308 c-50 -18 -75 -47 -75 -88 0 -42 18 -62 72 -79 50 -16 64
-35 50 -66 -16 -36 -51 -33 -65 5 -9 25 -17 30 -44 30 -35 0 -37 -2 -47 -42
-5 -23 -2 -27 26 -37 70 -25 182 -5 214 37 18 23 17 87 -1 105 -8 9 -37 23
-64 32 -50 16 -65 33 -55 60 7 17 39 29 54 20 5 -3 10 -15 10 -26 0 -15 7 -19
39 -19 34 0 39 3 44 28 3 15 1 31 -4 36 -13 14 -120 17 -154 4z"/>
<path d="M746 2188 c-15 -73 -30 -141 -32 -150 -4 -13 0 -18 14 -18 16 0 22
14 37 88 24 118 31 127 39 51 14 -137 15 -139 46 -139 26 0 34 10 84 103 30
56 56 97 56 90 0 -13 -27 -148 -36 -175 -5 -16 2 -18 45 -18 44 0 51 3 56 23
16 70 55 258 55 267 0 7 -21 10 -56 8 l-57 -3 -46 -85 -46 -85 -9 88 -8 87
-57 0 -58 0 -27 -132z"/>
<path d="M1160 2179 c-36 -77 -66 -145 -68 -150 -2 -5 5 -9 16 -9 14 0 25 12
36 40 15 38 18 40 60 40 44 0 44 0 51 -40 l7 -40 49 0 c57 0 55 -14 34 160 -8
69 -15 128 -15 133 0 4 -24 7 -53 7 l-53 0 -64 -141z m84 9 l6 -58 -35 0 c-19
0 -35 2 -35 5 0 10 51 118 54 114 2 -2 6 -30 10 -61z"/>
<path d="M1426 2188 c-15 -73 -30 -141 -32 -150 -5 -15 2 -18 44 -18 l50 0 12
65 c7 36 16 65 20 65 4 0 16 -29 26 -65 l19 -65 49 0 c54 0 54 -3 18 86 l-21
51 29 21 c32 24 46 71 31 101 -14 26 -69 41 -152 41 l-66 0 -27 -132z m162 68
c5 -41 -16 -76 -45 -76 -18 0 -23 4 -19 18 3 9 8 34 12 55 5 31 10 38 28 35
15 -2 22 -11 24 -32z"/>
<path d="M1730 2305 c0 -10 10 -15 28 -15 16 0 31 -2 34 -5 4 -4 -20 -127 -47
-242 -5 -21 -2 -23 43 -23 l49 0 23 113 c32 157 33 157 75 157 24 0 35 5 35
15 0 13 -20 15 -120 15 -100 0 -120 -2 -120 -15z"/>
<path d="M1986 2188 c-15 -73 -30 -141 -32 -150 -5 -15 2 -18 44 -18 l49 0 14
68 14 67 43 3 c54 4 60 32 7 32 -30 0 -35 3 -35 24 0 14 4 36 10 50 8 23 15
26 55 26 33 0 45 4 45 15 0 12 -17 15 -93 15 l-94 0 -27 -132z"/>
<path d="M2216 2188 c-15 -73 -30 -141 -32 -150 -5 -15 2 -18 44 -18 l49 0 27
128 c15 70 29 137 32 150 6 21 3 22 -43 22 l-50 0 -27 -132z"/>
<path d="M2396 2303 c-17 -61 -58 -274 -53 -279 19 -19 35 12 51 100 10 53 21
98 26 101 4 2 18 -43 31 -100 l24 -105 52 0 c46 0 53 3 58 23 21 87 55 253 55
264 0 8 -7 13 -17 11 -12 -2 -22 -29 -38 -106 -13 -56 -25 -105 -27 -108 -3
-2 -15 45 -28 106 l-23 110 -53 0 c-42 0 -54 -4 -58 -17z"/>
<path d="M2700 2317 c0 -4 -13 -70 -30 -147 -16 -77 -30 -143 -30 -147 0 -3
42 -3 93 -1 105 5 147 22 177 71 41 67 34 183 -12 208 -23 12 -198 26 -198 16z
m139 -44 c17 -34 -13 -169 -46 -205 -24 -27 -55 -24 -48 5 14 64 45 207 45
212 0 13 40 3 49 -12z"/>
<path d="M3277 2065 c-22 -22 -42 -33 -51 -29 -11 4 -16 0 -16 -11 0 -11 5
-15 15 -11 8 3 15 1 15 -4 0 -6 7 -10 15 -10 8 0 15 5 15 11 0 6 7 3 16 -5 8
-9 21 -16 27 -16 7 0 3 7 -7 15 -17 13 -18 15 -3 15 9 0 17 7 17 15 0 8 -5 15
-11 15 -5 0 -7 -4 -4 -10 3 -5 2 -10 -4 -10 -17 0 -21 18 -5 24 8 3 13 10 10
15 -4 5 0 11 6 14 7 2 10 7 7 11 -3 3 -22 -10 -42 -29z"/>
<path d="M3138 1996 c-54 -32 -54 -32 -4 -61 l45 -26 46 26 c25 15 42 32 38
38 -4 6 0 8 10 4 10 -4 17 -2 17 4 0 7 -10 9 -23 5 -14 -3 -35 2 -55 14 -18
11 -33 20 -35 19 -1 0 -19 -11 -39 -23z m72 -11 c17 -9 30 -18 30 -20 0 -6
-56 -35 -67 -35 -4 0 -19 9 -32 19 l-24 19 29 15 c36 20 30 20 64 2z"/>
<path d="M3157 1975 c-18 -13 -18 -14 2 -25 15 -8 27 -8 42 0 20 11 20 12 2
25 -22 18 -24 18 -46 0z"/>
<path d="M3455 1940 c3 -5 14 -10 23 -10 15 0 15 2 2 10 -20 13 -33 13 -25 0z"/>
<path d="M3377 1856 c-21 -13 -38 -27 -38 -31 0 -4 18 -18 41 -31 l42 -24 44
26 c24 14 44 27 44 29 0 3 -87 55 -92 55 -2 0 -20 -11 -41 -24z m73 -11 c17
-9 30 -18 30 -20 0 -2 -13 -11 -30 -20 -27 -14 -33 -14 -60 0 -16 9 -30 18
-30 20 0 4 50 33 58 35 2 0 16 -7 32 -15z"/>
<path d="M3397 1839 c-18 -10 -18 -12 2 -26 18 -12 24 -12 42 1 l21 14 -20 11
c-25 13 -22 13 -45 0z"/>
<path d="M3470 1870 c0 -11 60 -38 65 -30 3 4 -1 11 -7 13 -7 3 -5 6 6 6 11 1
16 4 12 8 -8 9 -76 11 -76 3z"/>
</g>
</svg>
